<?xml version="1.0" standalone="no"?>
<!DOCTYPE svg PUBLIC "-//W3C//DTD SVG 20010904//EN"
 "http://www.w3.org/TR/2001/REC-SVG-20010904/DTD/svg10.dtd">
<svg version="1.0" xmlns="http://www.w3.org/2000/svg"
 width="6284.000000pt" height="6284.000000pt" viewBox="0 0 6284.000000 6284.000000"
 preserveAspectRatio="xMidYMid meet">
<metadata>
Created by potrace 1.11, written by Peter Selinger 2001-2013
</metadata>
<g transform="translate(0.000000,6284.000000) scale(0.100000,-0.100000)"
fill="#000000" stroke="none">
<path d="M34249 59656 c-2 -2 -58 -7 -124 -10 -217 -12 -341 -23 -485 -41 -19
-2 -60 -7 -90 -10 -30 -3 -66 -8 -80 -10 -24 -4 -77 -12 -137 -19 -15 -2 -55
-9 -88 -15 -33 -6 -76 -13 -95 -16 -19 -3 -60 -10 -90 -16 -30 -6 -67 -13 -82
-15 -15 -3 -78 -16 -140 -30 -62 -14 -126 -27 -143 -30 -16 -3 -63 -15 -103
-26 -40 -11 -84 -21 -96 -24 -13 -2 -61 -15 -107 -28 -88 -25 -135 -37 -157
-42 -14 -3 -329 -102 -352 -111 -8 -3 -69 -25 -135 -48 -66 -23 -180 -66 -253
-95 l-132 -53 -123 46 c-191 71 -447 157 -537 182 -3 1 -37 11 -75 23 -62 19
-271 76 -316 87 -22 5 -149 35 -179 42 -14 3 -31 7 -39 9 -7 1 -34 8 -60 14
-54 12 -51 12 -251 49 -85 16 -175 32 -200 36 -25 3 -57 8 -71 10 -14 3 -43 7
-65 10 -21 2 -50 7 -64 9 -14 3 -47 8 -75 11 -27 3 -84 10 -125 15 -41 5 -112
12 -157 15 -46 3 -92 8 -103 10 -19 4 -82 8 -325 21 -89 4 -682 4 -760 0 -293
-18 -393 -26 -525 -41 -19 -3 -62 -7 -95 -11 -33 -3 -67 -7 -75 -9 -8 -1 -40
-6 -70 -10 -30 -4 -62 -9 -71 -10 -9 -2 -40 -6 -69 -10 -29 -4 -62 -9 -74 -11
-12 -2 -61 -11 -111 -19 -72 -13 -270 -51 -355 -70 -66 -14 -134 -39 -325
-120 -121 -51 -278 -120 -350 -153 -71 -33 -152 -70 -180 -82 -162 -73 -847
-418 -980 -494 -22 -13 -67 -38 -100 -56 -117 -64 -141 -78 -275 -155 -404
-234 -874 -533 -1220 -776 -187 -132 -264 -187 -400 -288 -145 -107 -459 -348
-470 -361 -3 -3 -50 -41 -105 -84 -55 -44 -140 -113 -190 -154 -119 -99 -2246
-2223 -2238 -2235 3 -6 2 -7 -4 -4 -10 6 -17253 -17235 -17369 -17367 -38 -44
-76 -87 -86 -97 -64 -67 -402 -490 -470 -589 -10 -14 -45 -63 -78 -110 -308
-432 -640 -1019 -835 -1475 -25 -60 -54 -127 -64 -150 -10 -22 -37 -87 -59
-145 -58 -150 -64 -165 -62 -165 2 0 -5 -18 -14 -40 -35 -82 -186 -550 -211
-653 -3 -9 -27 -107 -55 -217 -48 -192 -102 -441 -115 -535 -4 -24 -8 -47 -10
-50 -1 -3 -6 -25 -9 -50 -3 -25 -8 -54 -10 -66 -2 -12 -7 -45 -11 -75 -4 -30
-8 -56 -10 -59 -2 -3 -6 -32 -10 -65 -3 -33 -8 -71 -10 -85 -2 -14 -6 -52 -10
-85 -3 -33 -8 -78 -11 -100 -31 -281 -39 -464 -39 -890 1 -359 6 -550 20 -670
4 -40 13 -131 20 -215 3 -25 7 -64 10 -87 3 -24 8 -64 11 -90 3 -27 7 -59 9
-73 2 -14 7 -47 11 -75 3 -27 8 -59 10 -70 2 -10 6 -37 9 -60 38 -268 150
-760 248 -1090 98 -328 253 -750 375 -1015 16 -36 39 -87 52 -115 58 -130 245
-495 309 -603 17 -29 31 -55 31 -57 0 -4 82 -141 178 -295 89 -143 336 -505
362 -530 3 -3 32 -40 64 -84 67 -91 55 -75 182 -231 111 -137 197 -237 328
-380 99 -109 20082 -20095 20207 -20210 42 -38 106 -97 144 -130 37 -33 73
-65 79 -70 26 -24 257 -215 292 -241 22 -16 45 -34 52 -41 63 -60 533 -387
732 -510 669 -413 1293 -690 2125 -943 139 -42 594 -151 690 -165 22 -4 56
-10 75 -15 19 -5 53 -11 75 -14 22 -4 51 -8 65 -11 78 -16 99 -20 175 -30 28
-3 64 -9 81 -11 17 -3 46 -6 65 -8 19 -2 48 -6 64 -9 17 -3 61 -8 98 -12 37
-3 77 -8 87 -10 11 -2 58 -7 106 -10 47 -3 100 -8 118 -10 107 -13 337 -20
646 -20 400 0 655 12 890 40 19 3 62 7 95 10 33 3 67 7 75 10 8 2 40 6 71 10
31 3 65 7 75 9 11 2 42 7 69 10 61 8 110 16 139 22 11 2 35 6 51 9 17 3 41 7
55 10 14 3 41 7 60 10 39 6 250 50 320 66 25 6 52 12 60 14 271 55 907 255
1219 384 41 17 81 31 89 31 8 0 54 -15 101 -34 211 -83 834 -280 953 -301 16
-3 54 -12 86 -20 31 -9 71 -18 87 -21 17 -3 46 -9 65 -14 30 -8 148 -33 215
-46 11 -2 31 -6 45 -9 14 -3 43 -7 65 -11 22 -3 47 -7 55 -9 8 -2 38 -7 65
-11 28 -3 52 -7 55 -9 3 -2 28 -6 55 -9 28 -4 59 -8 70 -10 11 -2 49 -8 85
-12 36 -4 67 -8 70 -9 3 -1 37 -5 75 -9 39 -4 81 -9 95 -12 14 -2 61 -6 105
-10 44 -3 98 -7 120 -9 295 -24 758 -33 1020 -20 146 7 380 23 445 30 25 3 63
7 85 9 22 3 69 8 105 11 36 4 72 9 81 10 9 2 40 6 70 10 30 3 79 10 109 15 30
6 71 12 90 14 19 3 50 7 68 10 17 3 47 8 65 11 17 3 43 8 57 10 14 3 34 7 45
9 288 56 332 66 400 94 97 39 411 175 493 213 46 22 86 39 89 39 4 0 53 23
273 127 215 102 683 340 775 393 17 10 59 33 95 52 128 69 445 250 553 316 37
23 70 42 73 42 2 0 10 5 17 10 7 6 91 59 187 119 157 96 409 258 435 278 6 5
48 34 95 65 47 31 129 87 182 125 53 37 116 81 140 98 260 180 810 604 1088
839 106 90 19319 19299 19500 19496 138 151 219 243 291 330 29 36 57 67 61
68 4 2 8 10 8 17 0 7 4 15 9 17 26 10 307 388 466 628 112 168 323 512 346
564 5 11 34 66 65 121 71 129 217 427 284 580 29 66 58 134 65 150 25 56 82
200 109 275 15 41 32 84 37 95 16 37 120 349 160 485 45 148 164 620 173 678
2 21 7 44 10 52 3 8 7 29 10 45 3 17 7 42 10 58 3 15 10 53 16 85 6 31 12 68
15 82 3 14 8 45 11 70 3 25 8 54 10 65 2 11 6 31 8 45 3 14 8 48 11 75 6 55
14 117 20 155 2 14 7 57 10 95 3 39 8 81 10 95 2 14 7 66 11 115 3 50 8 99 10
110 23 119 22 1075 0 1215 -2 14 -7 70 -11 125 -9 128 -11 150 -18 205 -3 25
-9 72 -13 105 -3 33 -8 67 -9 75 -2 8 -6 40 -10 70 -4 30 -9 62 -10 70 -3 16
-14 85 -21 135 -8 54 -25 149 -39 220 -8 39 -16 81 -19 95 -16 83 -51 237 -81
360 -15 58 -28 112 -30 120 -2 8 -24 87 -50 175 -26 88 -49 169 -52 180 -22
83 -186 541 -233 650 -4 11 -34 81 -65 155 -110 260 -275 597 -400 815 -15 28
-35 63 -44 78 -19 34 -17 31 -110 186 -92 153 -266 414 -390 585 -90 123 -371
480 -395 501 -6 6 -36 39 -66 75 -57 68 -107 123 -230 253 -136 144 -20035
20040 -20130 20127 -51 47 -102 94 -114 105 -12 11 -68 61 -126 110 -422 363
-937 721 -1414 984 -143 79 -480 249 -596 300 -170 76 -326 143 -335 145 -5 1
-71 26 -145 55 -457 179 -1050 344 -1550 430 -63 11 -131 23 -150 26 -19 4
-47 8 -63 10 -15 2 -64 9 -110 15 -45 6 -93 13 -107 15 -24 4 -56 7 -180 20
-30 3 -71 8 -90 10 -19 2 -75 7 -125 11 -49 3 -112 8 -140 11 -64 5 -890 14
-896 9z m2083 -22242 c2686 -2684 4912 -4905 4948 -4935 36 -30 67 -56 70 -59
3 -3 43 -39 90 -80 105 -93 153 -136 195 -175 18 -16 82 -75 141 -130 60 -55
213 -202 339 -327 l230 -227 -5477 -5477 -5476 -5477 -4874 4873 c-2680 2680
-4922 4916 -4983 4969 -60 52 -121 105 -135 118 -14 12 -37 32 -51 45 -217
193 -472 434 -700 660 l-160 159 5473 5474 c3010 3011 5476 5473 5480 5472 5
-1 2205 -2198 4890 -4883z"/>
</g>
</svg>
