<svg id="Layer_1" data-name="Layer 1" xmlns="http://www.w3.org/2000/svg" viewBox="0 0 1508.05 1355.72"><title>favicon</title><path d="M1016.18,734.29c153.46,153.46,158.38,394.58,20.41,557.15l-48.49,48.49a410.83,410.83,0,0,1-111.47,67.6,204.08,204.08,0,0,1-190.17-343.14l329-329Z" transform="translate(0 -58.16)" style="fill:#184787"/><path d="M491.68,737.55C338.22,584.1,333.5,343.18,471.46,180.61l48.49-48.49a410.87,410.87,0,0,1,111.47-67.6A204.08,204.08,0,0,1,821.58,407.66l-329,329Z" transform="translate(0 -58.16)" style="fill:#184787"/><path d="M686.47,117.91a204.09,204.09,0,0,1,288.59,0l473.24,473.24c79.68,79.68,79.68,208.89,0,288.57l-411.7,411.7c138-162.57,130.21-406.54-23.24-560q-12-12-24.73-22.8L686.49,406.5c-79.7-79.7-79.7-208.91,0-288.59" transform="translate(0 -58.16)" style="fill:#51c0ee"/><path d="M821.58,1354.14a204.09,204.09,0,0,1-288.59,0L59.76,880.88c-79.68-79.68-79.68-208.89,0-288.57l411.7-411.7c-138,162.57-130.21,406.54,23.24,560q12,12,24.73,22.8l302.14,302.14c79.7,79.7,79.7,208.91,0,288.59" transform="translate(0 -58.16)" style="fill:#51c0ee"/></svg>