<svg id="logo" xmlns="http://www.w3.org/2000/svg" xmlns:xlink="http://www.w3.org/1999/xlink" viewBox="0 0 5820.36 1359.69"><defs><clipPath id="clip-path" transform="translate(20.4 6.14)"><rect x="4876.84" y="-6.14" width="902.72" height="1359.69" style="fill:none"/></clipPath><clipPath id="clip-path-3" transform="translate(20.4 6.14)"><path d="M5740.41,687.58a169.27,169.27,0,0,0-49.74-120.1L5205.95,82.76A169.85,169.85,0,1,0,4965.75,323l308.36,308.36c9,7.73,17.93,16,26.43,24.46,1,1,2.06,2.09,3.08,3.13l-27.68,27.68q-1.53-1.57-3.08-3.12-12.3-12.32-25.33-23.36L4938.07,350.65c-81.64-81.64-81.64-214,0-295.59a209,209,0,0,1,295.59,0l484.71,484.71c81.61,81.61,81.61,214,0,295.57l-359.69,359.7a428.52,428.52,0,0,0,76.52-131.9l255.49-255.48a169.31,169.31,0,0,0,49.74-120.1" style="fill:none"/></clipPath><linearGradient id="Gradiente_sem_nome" x1="-99.76" y1="1461.87" x2="-98.76" y2="1461.87" gradientTransform="matrix(902.72, 0, 0, -902.72, 94956.3, 1320256.94)" gradientUnits="userSpaceOnUse"><stop offset="0" stop-color="#4cc0ef"/><stop offset="1" stop-color="#446ab0"/></linearGradient><clipPath id="clip-path-4" transform="translate(20.4 6.14)"><path d="M5427.14,1071.2l8-8a428.52,428.52,0,0,1-76.52,131.9l-62,62a421.29,421.29,0,0,0,89-176.32,383.38,383.38,0,0,0,26.87-241.65,470.28,470.28,0,0,1,14.58,232.12" style="fill:none"/></clipPath><linearGradient id="Gradiente_sem_nome_2" x1="-99.76" y1="1461.87" x2="-98.76" y2="1461.87" gradientTransform="matrix(902.72, 0, 0, -902.72, 94956.46, 1320712.78)" xlink:href="#Gradiente_sem_nome"/><clipPath id="clip-path-5" transform="translate(20.4 6.14)"><path d="M5412.56,839.08a383.38,383.38,0,0,1-26.87,241.65c29.4-124.84,1.53-260.42-83.61-364.91L5329.87,688a458.82,458.82,0,0,1,82.69,151" style="fill:none"/></clipPath><linearGradient id="Gradiente_sem_nome_3" x1="-99.76" y1="1461.87" x2="-98.76" y2="1461.87" gradientTransform="matrix(902.72, 0, 0, -902.72, 94956.46, 1320549.1)" xlink:href="#Gradiente_sem_nome"/><clipPath id="clip-path-6" transform="translate(20.4 6.14)"><path d="M5379.67,1093.19q3.12-6.17,6-12.46a421.29,421.29,0,0,1-89,176.32L5274.73,1279a420.74,420.74,0,0,1-114.17,69.24,209,209,0,0,1-194.78-351.47l310.16-310.16q13.88,14.14,26.14,29.23l-308.62,308.62a169.79,169.79,0,0,0,120.09,290,171,171,0,0,0,35.25-3.68,381.41,381.41,0,0,0,99.4-60.58l81.61-81.61a392.23,392.23,0,0,0,49.86-75.34" style="fill:none"/></clipPath><linearGradient id="Gradiente_sem_nome_4" x1="-98.19" y1="1461.87" x2="-97.19" y2="1461.87" gradientTransform="matrix(555.77, 0, 0, -555.77, 59496.57, 813484.68)" gradientUnits="userSpaceOnUse"><stop offset="0" stop-color="#0f4588"/><stop offset="1" stop-color="#1c1927"/></linearGradient><clipPath id="clip-path-7" transform="translate(20.4 6.14)"><path d="M5329.87,688l-27.79,27.78q-12.27-15.06-26.14-29.23l27.68-27.68q13.84,14.1,26.25,29.13" style="fill:none"/></clipPath><linearGradient id="Gradiente_sem_nome_5" x1="-99.76" y1="1461.87" x2="-98.76" y2="1461.87" gradientTransform="matrix(902.72, 0, 0, -902.72, 94956.46, 1320352.08)" xlink:href="#Gradiente_sem_nome"/><clipPath id="clip-path-8" transform="translate(20.4 6.14)"><rect y="-6.14" width="902.73" height="1359.69" style="fill:none"/></clipPath><clipPath id="clip-path-10" transform="translate(20.4 6.14)"><path d="M851.14,1208.51a169.7,169.7,0,0,0-37.32-184.06L505.45,716.08c-9-7.72-17.92-16-26.43-24.45l-3.08-3.13,27.68-27.68c1,1,2,2.09,3.09,3.12Q519,676.26,532,687.3L841.5,996.76c81.63,81.64,81.63,214,0,295.59a209,209,0,0,1-295.59,0L61.21,807.62c-81.61-81.61-81.61-214,0-295.57l359.7-359.7a428.52,428.52,0,0,0-76.53,131.9L88.9,539.73a169.67,169.67,0,0,0,0,240.2l484.72,484.72a169.94,169.94,0,0,0,277.52-56.14" style="fill:none"/></clipPath><linearGradient id="Gradiente_sem_nome_6" x1="-102.28" y1="1461.85" x2="-101.28" y2="1461.85" gradientTransform="matrix(-902.72, 0, 0, 902.72, -91410.04, -1318888.63)" xlink:href="#Gradiente_sem_nome"/><clipPath id="clip-path-11" transform="translate(20.4 6.14)"><path d="M875,202.87a208.38,208.38,0,0,1-61.2,147.79L503.62,660.82q-13.86-14.14-26.13-29.23L786.1,323A169.79,169.79,0,0,0,666,33a171,171,0,0,0-35.26,3.68,381.25,381.25,0,0,0-99.39,60.58l-81.62,81.61a391.71,391.71,0,0,0-49.85,75.34q-3.13,6.16-6,12.45a421.17,421.17,0,0,1,89-176.31l21.93-21.93A420.8,420.8,0,0,1,619-.81,209,209,0,0,1,875,202.87" style="fill:none"/></clipPath><linearGradient id="Gradiente_sem_nome_7" x1="-102.28" y1="1461.85" x2="-101.28" y2="1461.85" gradientTransform="matrix(-555.77, 0, 0, 555.77, -55950.04, -812112.71)" xlink:href="#Gradiente_sem_nome_4"/><clipPath id="clip-path-12" transform="translate(20.4 6.14)"><path d="M503.62,660.82L475.94,688.5q-13.83-14.1-26.24-29.13l27.79-27.78q12.27,15.06,26.13,29.23" style="fill:none"/></clipPath><linearGradient id="Gradiente_sem_nome_8" x1="-102.28" y1="1461.85" x2="-101.28" y2="1461.85" gradientTransform="matrix(-902.72, 0, 0, 902.72, -91409.93, -1318980.11)" xlink:href="#Gradiente_sem_nome"/><clipPath id="clip-path-13" transform="translate(20.4 6.14)"><path d="M420.91,152.35l62-62a421.17,421.17,0,0,0-89,176.31A383.31,383.31,0,0,0,367,508.33a470.51,470.51,0,0,1-14.58-232.12l-8,8a428.52,428.52,0,0,1,76.53-131.9" style="fill:none"/></clipPath><linearGradient id="Gradiente_sem_nome_9" x1="-102.28" y1="1461.85" x2="-101.28" y2="1461.85" gradientTransform="matrix(-902.72, 0, 0, 902.72, -91409.93, -1319340.81)" xlink:href="#Gradiente_sem_nome"/><clipPath id="clip-path-14" transform="translate(20.4 6.14)"><path d="M477.49,631.59L449.7,659.37a459,459,0,0,1-82.7-151,383.31,383.31,0,0,1,26.88-241.66c-29.4,124.85-1.53,260.43,83.61,364.92" style="fill:none"/></clipPath><linearGradient id="Gradiente_sem_nome_10" x1="-102.28" y1="1461.85" x2="-101.28" y2="1461.85" gradientTransform="matrix(-902.72, 0, 0, 902.72, -91409.93, -1319177.14)" xlink:href="#Gradiente_sem_nome"/></defs><title>logov1.2</title><g id="subtitle"><path d="M1427.07,903.48q0,58-12.9,82.34t-43.22,24.38q-31.89,0-44.93-26.22-12.9-25.65-12.9-91.13,0-58.39,12.75-82.62t43.65-24.38q27.49,0,40.81,18.85,8.79,12.62,12.75,35.86Q1427.06,862.1,1427.07,903.48Zm-30.9,3.12q0-56.83-5.1-75.39t-20.83-18.71q-15.73,0-21,17.15t-5.1,69.44q0,48,5.39,66.61,5.53,17.57,20.69,17.57,14.88,0,20.41-16.44T1396.17,906.59Z" transform="translate(20.4 6.14)" style="fill:#0f4588"/><path d="M1570.8,860.82h27.07v16.86q11.62-19.27,30-19.27,17.86,0,25.51,14,4.25,7.94,4.25,30.75v104.3H1630.6l-0.14-98.07q0-14.88-3.54-21.12t-12.19-6.24a17.17,17.17,0,0,0-7.87,1.63,12.32,12.32,0,0,0-5.17,5.24,29.14,29.14,0,0,0-2.9,9.42,93.28,93.28,0,0,0-.92,14.31v94.81H1570.8V860.82Z" transform="translate(20.4 6.14)" style="fill:#0f4588"/><path d="M1804.38,766.72h27.07V1007.5h-27.07V766.72Z" transform="translate(20.4 6.14)" style="fill:#0f4588"/><path d="M1991,798.46a18.39,18.39,0,0,1,18.14,18.28,18.35,18.35,0,1,1-36.7-.14,17.43,17.43,0,0,1,5.39-12.75A18.87,18.87,0,0,1,1991,798.46Zm-12.75,62.36h27.21V1007.5h-27.21V860.82Z" transform="translate(20.4 6.14)" style="fill:#0f4588"/><path d="M2152.07,860.82h27.07v16.86q11.62-19.27,30-19.27,17.86,0,25.51,14,4.25,7.94,4.25,30.75v104.3h-27.07l-0.14-98.07q0-14.88-3.54-21.12T2196,882.08a17.17,17.17,0,0,0-7.87,1.63A12.32,12.32,0,0,0,2183,889a29.17,29.17,0,0,0-2.9,9.42,93.28,93.28,0,0,0-.92,14.31v94.81h-27.07V860.82Z" transform="translate(20.4 6.14)" style="fill:#0f4588"/><path d="M2442.34,958h25.23q-3,51.73-42.51,51.73-11.77,0-20.2-4.39a35.3,35.3,0,0,1-14-13.61q-5.53-9.21-8.15-23.38a188,188,0,0,1-2.62-33.73q0-38.83,10.84-57.54t33.52-18.71q44.07,0,44.07,77.66v3.4h-61.93q0,47.05,18.71,47.05Q2442.34,986.52,2442.34,958Zm-1.42-38.12q-1.7-23.1-5.24-30.33-3.69-8.08-11.9-8.08t-11.9,8.08q-3.54,7.23-5.24,30.33h34.3Z" transform="translate(20.4 6.14)" style="fill:#0f4588"/><path d="M2859.47,793.22V822q-13.47-9.64-24.23-9.64-11.62,0-19,8.22-7.37,7.79-7.37,20.83,0,11.48,5.24,19.7a86.88,86.88,0,0,0,8.86,11.34q6.16,6.95,15.94,16.72,18,18.28,24.52,31.6,6.52,12.9,6.52,31.6,0,25.37-14.31,41.81-14.32,16-36.7,16-18.85,0-32.17-10.35V970.65q15.73,11.48,28.63,11.48,12,0,18.85-8t6.8-21.75a43.54,43.54,0,0,0-5.24-21.4,87.72,87.72,0,0,0-7.51-10.42q-4.82-5.88-12-13.11-11.2-11.05-18.56-19.56A92.08,92.08,0,0,1,2786.77,873q-6.8-12.47-6.8-31.46,0-25.65,13.32-40.67t36.14-15.16A63.8,63.8,0,0,1,2859.47,793.22Z" transform="translate(20.4 6.14)" style="fill:#0f4588"/><path d="M3095.89,935.36q0,74.4-46.06,74.4t-46.06-75.54q0-75.82,45.92-75.82,11.91,0,20.62,4.53a36.25,36.25,0,0,1,14.38,14q5.67,9.5,8.43,23.95A186,186,0,0,1,3095.89,935.36Zm-28.06-.71q0-28.91-3.83-40.25t-13.61-11.48q-9.64,0-13.75,11.34-3.83,11.34-3.83,39.54t3.83,39.4q4.11,11.34,13.75,11.34t13.46-11.2Q3067.83,962.86,3067.83,934.66Z" transform="translate(20.4 6.14)" style="fill:#0f4588"/><path d="M3237.21,766.72h27.07V1007.5h-27.07V766.72Z" transform="translate(20.4 6.14)" style="fill:#0f4588"/><path d="M3411.13,860.82h27.07v98.07q0.28,13.6,4,19.42t12.54,5.81q9.21,0,12.9-5.1,3.68-5.38,3.69-18.71V860.82h27.07v87.72q0,30.75-4.53,41.1-9.5,20.12-39.4,20.12-23.53,0-33.45-11.9t-9.92-40.11V860.82Z" transform="translate(20.4 6.14)" style="fill:#0f4588"/><path d="M3648.39,819.72h27.07v41.1h14.74v21.54h-14.74V1007.5h-27.07V882.36h-14.88V860.82h14.88v-41.1Z" transform="translate(20.4 6.14)" style="fill:#0f4588"/><path d="M3838.46,798.46a18.39,18.39,0,0,1,18.14,18.28,18.35,18.35,0,1,1-36.7-.14,17.43,17.43,0,0,1,5.39-12.75A18.87,18.87,0,0,1,3838.46,798.46Zm-12.75,62.36h27.21V1007.5h-27.21V860.82Z" transform="translate(20.4 6.14)" style="fill:#0f4588"/><path d="M4086.08,935.36q0,74.4-46.06,74.4T3994,934.23q0-75.82,45.92-75.82,11.91,0,20.62,4.53a36.25,36.25,0,0,1,14.38,14q5.67,9.5,8.43,23.95A186,186,0,0,1,4086.08,935.36Zm-28.06-.71q0-28.91-3.83-40.25t-13.61-11.48q-9.64,0-13.75,11.34-3.83,11.34-3.83,39.54t3.83,39.4q4.11,11.34,13.75,11.34t13.46-11.2Q4058,962.86,4058,934.66Z" transform="translate(20.4 6.14)" style="fill:#0f4588"/><path d="M4227.4,860.82h27.07v16.86q11.62-19.27,30-19.27,17.86,0,25.51,14,4.25,7.94,4.25,30.75v104.3H4287.2l-0.14-98.07q0-14.88-3.54-21.12t-12.19-6.24a17.17,17.17,0,0,0-7.87,1.63,12.32,12.32,0,0,0-5.17,5.24,29.17,29.17,0,0,0-2.9,9.42,93.28,93.28,0,0,0-.92,14.31v94.81H4227.4V860.82Z" transform="translate(20.4 6.14)" style="fill:#0f4588"/><path d="M4517.67,863.8v25.37q-9.92-7.37-20.83-7.37a17.65,17.65,0,0,0-12.26,4.75,16,16,0,0,0-3.68,5.24,15.75,15.75,0,0,0-1.35,6.45q0,10.49,19,24.94a137.74,137.74,0,0,1,12.75,11.05,50.58,50.58,0,0,1,7.79,9.64q5.53,8.93,5.53,22.53,0,19.7-11.48,31.6t-30.47,11.76q-11.77,0-23.81-6.95V976.6q11.76,8.79,22.25,8.79,18.56,0,18.56-18.28a20.3,20.3,0,0,0-3.4-11.76,32.16,32.16,0,0,0-5-5.6q-3.4-3.19-8.36-7.16-17.15-13.32-23.24-22.39-6-9.35-6-22.53,0-17.71,10.91-29.05t28.77-11.2A50.24,50.24,0,0,1,4517.67,863.8Z" transform="translate(20.4 6.14)" style="fill:#0f4588"/></g><g id="title"><path d="M1113.43,384.68h-83.55V644.34H993.8V384.68H910.26V354.09h203.18v30.59Z" transform="translate(20.4 6.14)" style="fill:#0f4588"/><path d="M1565.28,497.06q0,64.41-45.3,109.77t-109.63,45.36q-65.11,0-112-43.79T1251.5,501q0-64.41,45.3-109.76t109.63-45.36q65.1,0,112,43.79T1565.28,497.06Zm-36.09-.78q0-49.9-36.08-84.47t-86.68-34.57q-49.82,0-84.33,36.15t-34.52,86.82q0,49.9,35.89,84.27t86.88,34.38q49.81,0,84.33-36.14T1529.2,496.27Z" transform="translate(20.4 6.14)" style="fill:#0f4588"/><path d="M1911.72,644.27l-47.17.07-109-148.26V644.34H1719V354.09l107.47,1.18q31,0,50.79,23.53a82.17,82.17,0,0,1,19.81,54.52,81.21,81.21,0,0,1-5.68,30.59q-5.68,14.12-18.61,25.89a90.84,90.84,0,0,1-31.73,16.87l-38.4-.07ZM1832,389a88.14,88.14,0,0,0-10.79-3.33,44.71,44.71,0,0,0-10.39-1.37h-55.3v97.27h64.72q18.83,0,29.22-13.14t10.39-32a58.82,58.82,0,0,0-7.06-28.63A41.74,41.74,0,0,0,1832,389Z" transform="translate(20.4 6.14)" style="fill:#0f4588"/><path d="M2295.22,631.4a241.9,241.9,0,0,1-41.38,13.33,193.84,193.84,0,0,1-42.56,4.71,170.19,170.19,0,0,1-57.66-9.81,153.82,153.82,0,0,1-50.21-29.81q-46.29-47.07-46.28-111,0-41.57,18.24-71.39t35.69-45.69q17.45-15.88,33.34-22.36t25.89-8.83a174.72,174.72,0,0,1,20.4-3.53,179.45,179.45,0,0,1,20.2-1.18,195.89,195.89,0,0,1,30.59,2.55,259.38,259.38,0,0,1,32.16,7.26l21.57,9.81V403.9q-36.48-25.89-80-25.89a127.66,127.66,0,0,0-54.91,12q-25.5,12-43.93,36.67a129,129,0,0,0-22,71.78A124.17,124.17,0,0,0,2111.07,561q16.67,29.22,45.89,43.93t59.42,14.71q32.55,0,58.44-16.08l20.4-12.94V631.4Z" transform="translate(20.4 6.14)" style="fill:#0f4588"/><path d="M2699.22,644.34H2665.1V499.61H2504.28V644.34h-34.12V354.09h34.12V469H2665.1V354.09h34.12V644.34Z" transform="translate(20.4 6.14)" style="fill:#0f4588"/><path d="M2989.86,644.34h-34.12V354.09h34.12V644.34Z" transform="translate(20.4 6.14)" style="fill:#0f4588"/><path d="M3526.43,497.06q0,64.41-45.3,109.77T3371.5,652.18q-65.11,0-112-43.79T3212.65,501q0-64.41,45.3-109.76t109.63-45.36q65.1,0,112,43.79T3526.43,497.06Zm-36.09-.78q0-49.9-36.08-84.47t-86.68-34.57q-49.82,0-84.33,36.15t-34.52,86.82q0,49.9,35.89,84.27t86.88,34.38q49.81,0,84.33-36.14T3490.35,496.27Z" transform="translate(20.4 6.14)" style="fill:#0f4588"/><path d="M3837.86,644.34h-29.42V608.26a69,69,0,0,1-28.38,30,80.13,80.13,0,0,1-39.82,10.39,90.85,90.85,0,0,1-33.11-6.28,85.68,85.68,0,0,1-29.17-19,81.61,81.61,0,0,1-19.51-30.2,105.18,105.18,0,0,1-6.5-37.07,119.44,119.44,0,0,1,15-58.05,80.65,80.65,0,0,1,31.93-30.2,89.81,89.81,0,0,1,43-11A78.34,78.34,0,0,1,3784.4,469a99.16,99.16,0,0,1,11.43,9.81q5.52,5.5,12.62,13.73V337.22h29.42V644.34Zm-45.11-42q15.68-20.79,15.69-49,0-23.92-12.75-42.56t-37.06-23.34a105.93,105.93,0,0,0-10.59-.78,60.15,60.15,0,0,0-40.6,15.1q-17.46,15.1-19.22,29t-2,17.06c-0.14,2.1-.2,3.92-0.2,5.49q0,27.85,14.71,48.24t41.77,20.4q15.68,0,27.85-4.51A60,60,0,0,0,3792.76,602.37Z" transform="translate(20.4 6.14)" style="fill:#0f4588"/><path d="M4243,601.59a120.32,120.32,0,0,1-40,34.52,104.4,104.4,0,0,1-49.81,12.55,100.13,100.13,0,0,1-47.85-12.16,89.73,89.73,0,0,1-32.16-35.69,105.45,105.45,0,0,1-11-47.85q0-34.91,20.2-62.56t41.58-31q21.37-3.33,29.22-3.33a99.75,99.75,0,0,1,46.87,11.38q21.77,11.38,32,34.71t10.2,54.72H4094.77q0,26.68,16.82,45.89T4153.85,622a57.92,57.92,0,0,0,14.08-1.57,56.89,56.89,0,0,0,27-11.18q11.34-8.83,22.3-23.73Zm-32.56-68.25q-4.32-22-20.79-35.89t-38.83-13.92q-20,0-35.11,14.71a70.05,70.05,0,0,0-19.81,35.1h114.53Z" transform="translate(20.4 6.14)" style="fill:#0f4588"/><path d="M4638,462l-85.9,188.66h-8.24L4455.34,462l38.44,0,56,134,51.74-134H4638Z" transform="translate(20.4 6.14)" style="fill:#0f4588"/><path d="M4927.48,607.46l-51,104.24-22-7.84,37.65-106.2Zm-23.53-124.72a21.63,21.63,0,0,1,12.55,8.83,26.52,26.52,0,0,1-1,30.4q-5.3,6.67-15.49,7.45-12.56,0-19-7.06t-6.47-18.43a37.18,37.18,0,0,1,1.18-9,22.85,22.85,0,0,1,11.38-9.22A45.62,45.62,0,0,1,4903.94,482.74Z" transform="translate(20.4 6.14)" style="fill:#0f4588"/></g><g id="right-bracket"><g style="clip-path:url(#clip-path)"><g style="clip-path:url(#clip-path)"><g style="clip-path:url(#clip-path-3)"><rect x="4876.83" width="943.53" height="1201.2" style="fill:url(#Gradiente_sem_nome)"/></g><g style="clip-path:url(#clip-path-4)"><rect x="5317.06" y="845.22" width="145.12" height="417.97" style="fill:url(#Gradiente_sem_nome_2)"/></g><g style="clip-path:url(#clip-path-5)"><rect x="5322.48" y="694.18" width="122.59" height="392.69" style="fill:url(#Gradiente_sem_nome_3)"/></g><g style="clip-path:url(#clip-path-6)"><rect x="4924.98" y="692.73" width="481.11" height="666.96" style="fill:url(#Gradiente_sem_nome_4)"/></g><g style="clip-path:url(#clip-path-7)"><rect x="5296.34" y="665.05" width="53.93" height="56.91" style="fill:url(#Gradiente_sem_nome_5)"/></g></g></g></g><g id="left-bracket"><g style="clip-path:url(#clip-path-8)"><g style="clip-path:url(#clip-path-8)"><g style="clip-path:url(#clip-path-10)"><rect y="158.49" width="943.53" height="1201.2" style="fill:url(#Gradiente_sem_nome_6)"/></g><g style="clip-path:url(#clip-path-11)"><rect x="414.28" width="481.11" height="666.96" style="fill:url(#Gradiente_sem_nome_7)"/></g><g style="clip-path:url(#clip-path-12)"><rect x="470.1" y="637.73" width="53.92" height="56.91" style="fill:url(#Gradiente_sem_nome_8)"/></g><g style="clip-path:url(#clip-path-13)"><rect x="358.19" y="96.5" width="145.11" height="417.97" style="fill:url(#Gradiente_sem_nome_9)"/></g><g style="clip-path:url(#clip-path-14)"><rect x="375.3" y="272.81" width="122.59" height="392.7" style="fill:url(#Gradiente_sem_nome_10)"/></g></g></g></g></svg>