<svg id="logo" xmlns="http://www.w3.org/2000/svg" xmlns:xlink="http://www.w3.org/1999/xlink" viewBox="0 0 3546.52 1359.69"><defs><clipPath id="clip-path" transform="translate(20.4)"><rect x="2603" width="902.72" height="1359.69" style="fill:none"/></clipPath><clipPath id="clip-path-3" transform="translate(20.4)"><path d="M3466.57,693.72a169.27,169.27,0,0,0-49.74-120.1L2932.11,88.9a169.85,169.85,0,1,0-240.2,240.2l308.36,308.36c9,7.73,17.93,16,26.43,24.46,1,1,2.06,2.09,3.08,3.13l-27.68,27.68q-1.53-1.57-3.08-3.12-12.3-12.32-25.33-23.36L2664.23,356.79c-81.64-81.64-81.64-214,0-295.59a209,209,0,0,1,295.59,0l484.71,484.71c81.61,81.61,81.61,214,0,295.57l-359.69,359.7a428.52,428.52,0,0,0,76.52-131.9l255.49-255.48a169.31,169.31,0,0,0,49.74-120.1" style="fill:none"/></clipPath><linearGradient id="Gradiente_sem_nome" x1="-102.28" y1="1461.86" x2="-101.28" y2="1461.86" gradientTransform="matrix(902.72, 0, 0, -902.72, 94956.3, 1320250.8)" gradientUnits="userSpaceOnUse"><stop offset="0" stop-color="#4cc0ef"/><stop offset="1" stop-color="#446ab0"/></linearGradient><clipPath id="clip-path-4" transform="translate(20.4)"><path d="M3153.3,1077.34l8-8a428.52,428.52,0,0,1-76.52,131.9l-62,62a421.29,421.29,0,0,0,89-176.32,383.38,383.38,0,0,0,26.87-241.65,470.28,470.28,0,0,1,14.58,232.12" style="fill:none"/></clipPath><linearGradient id="Gradiente_sem_nome_2" x1="-102.28" y1="1461.86" x2="-101.28" y2="1461.86" gradientTransform="matrix(902.72, 0, 0, -902.72, 94956.46, 1320706.64)" xlink:href="#Gradiente_sem_nome"/><clipPath id="clip-path-5" transform="translate(20.4)"><path d="M3138.72,845.22a383.38,383.38,0,0,1-26.87,241.65c29.4-124.84,1.53-260.42-83.61-364.91L3056,694.18a458.82,458.82,0,0,1,82.69,151" style="fill:none"/></clipPath><linearGradient id="Gradiente_sem_nome_3" x1="-102.28" y1="1461.86" x2="-101.28" y2="1461.86" gradientTransform="matrix(902.72, 0, 0, -902.72, 94956.46, 1320542.96)" xlink:href="#Gradiente_sem_nome"/><clipPath id="clip-path-6" transform="translate(20.4)"><path d="M3105.83,1099.33q3.12-6.17,6-12.46a421.29,421.29,0,0,1-89,176.32l-21.93,21.93a420.74,420.74,0,0,1-114.17,69.24,209,209,0,0,1-194.78-351.47L3002.1,692.73Q3016,706.87,3028.24,722l-308.62,308.62a169.79,169.79,0,0,0,120.09,290,171,171,0,0,0,35.25-3.68,381.41,381.41,0,0,0,99.4-60.58l81.61-81.61a392.23,392.23,0,0,0,49.86-75.34" style="fill:none"/></clipPath><linearGradient id="Gradiente_sem_nome_4" x1="-102.28" y1="1461.86" x2="-101.28" y2="1461.86" gradientTransform="matrix(555.77, 0, 0, -555.77, 59496.57, 813478.54)" gradientUnits="userSpaceOnUse"><stop offset="0" stop-color="#0f4588"/><stop offset="1" stop-color="#1c1927"/></linearGradient><clipPath id="clip-path-7" transform="translate(20.4)"><path d="M3056,694.18L3028.24,722Q3016,706.9,3002.1,692.73L3029.78,665q13.84,14.1,26.25,29.13" style="fill:none"/></clipPath><linearGradient id="Gradiente_sem_nome_5" x1="-102.28" y1="1461.86" x2="-101.28" y2="1461.86" gradientTransform="matrix(902.72, 0, 0, -902.72, 94956.46, 1320345.94)" xlink:href="#Gradiente_sem_nome"/><clipPath id="clip-path-8" transform="translate(20.4)"><rect width="902.73" height="1359.69" style="fill:none"/></clipPath><clipPath id="clip-path-10" transform="translate(20.4)"><path d="M851.14,1214.65a169.7,169.7,0,0,0-37.32-184.06L505.45,722.22c-9-7.72-17.92-16-26.43-24.45l-3.08-3.13L503.62,667c1,1,2,2.09,3.09,3.12Q519,682.39,532,693.44L841.5,1002.9c81.63,81.64,81.63,214,0,295.59a209,209,0,0,1-295.59,0L61.21,813.76c-81.61-81.61-81.61-214,0-295.57l359.7-359.7a428.52,428.52,0,0,0-76.53,131.9L88.9,545.87a169.67,169.67,0,0,0,0,240.2l484.72,484.72a169.94,169.94,0,0,0,277.52-56.14" style="fill:none"/></clipPath><linearGradient id="Gradiente_sem_nome_6" x1="-102.28" y1="1461.86" x2="-101.28" y2="1461.86" gradientTransform="matrix(-902.72, 0, 0, 902.72, -91410.04, -1318894.77)" xlink:href="#Gradiente_sem_nome"/><clipPath id="clip-path-11" transform="translate(20.4)"><path d="M875,209a208.38,208.38,0,0,1-61.2,147.79L503.62,667q-13.86-14.14-26.13-29.23L786.1,329.11A169.79,169.79,0,0,0,666,39.15a171,171,0,0,0-35.26,3.68,381.25,381.25,0,0,0-99.39,60.58L449.75,185a391.71,391.71,0,0,0-49.85,75.34q-3.13,6.16-6,12.45a421.17,421.17,0,0,1,89-176.31l21.93-21.93A420.8,420.8,0,0,1,619,5.33,209,209,0,0,1,875,209" style="fill:none"/></clipPath><linearGradient id="Gradiente_sem_nome_7" x1="-102.28" y1="1461.86" x2="-101.28" y2="1461.86" gradientTransform="matrix(-555.77, 0, 0, 555.77, -55950.04, -812118.85)" xlink:href="#Gradiente_sem_nome_4"/><clipPath id="clip-path-12" transform="translate(20.4)"><path d="M503.62,667l-27.68,27.68q-13.83-14.1-26.24-29.13l27.79-27.78q12.27,15.06,26.13,29.23" style="fill:none"/></clipPath><linearGradient id="Gradiente_sem_nome_8" x1="-102.28" y1="1461.86" x2="-101.28" y2="1461.86" gradientTransform="matrix(-902.72, 0, 0, 902.72, -91409.93, -1318986.25)" xlink:href="#Gradiente_sem_nome"/><clipPath id="clip-path-13" transform="translate(20.4)"><path d="M420.91,158.49l62-62a421.17,421.17,0,0,0-89,176.31A383.31,383.31,0,0,0,367,514.47a470.51,470.51,0,0,1-14.58-232.12l-8,8a428.52,428.52,0,0,1,76.53-131.9" style="fill:none"/></clipPath><linearGradient id="Gradiente_sem_nome_9" x1="-102.28" y1="1461.86" x2="-101.28" y2="1461.86" gradientTransform="matrix(-902.72, 0, 0, 902.72, -91409.93, -1319346.95)" xlink:href="#Gradiente_sem_nome"/><clipPath id="clip-path-14" transform="translate(20.4)"><path d="M477.49,637.73L449.7,665.51a459,459,0,0,1-82.7-151,383.31,383.31,0,0,1,26.88-241.66c-29.4,124.85-1.53,260.43,83.61,364.92" style="fill:none"/></clipPath><linearGradient id="Gradiente_sem_nome_10" x1="-102.28" y1="1461.86" x2="-101.28" y2="1461.86" gradientTransform="matrix(-902.72, 0, 0, 902.72, -91409.93, -1319183.27)" xlink:href="#Gradiente_sem_nome"/></defs><title>logo</title><g id="text"><path d="M813.23,587.13H769.87V721.88H751.15V587.13H707.79V571.25H813.23v15.88Z" transform="translate(20.4)" style="fill:#0f4588"/><path d="M1047.72,645.44q0,33.42-23.51,57t-56.89,23.54q-33.79,0-58.11-22.72t-24.32-55.75q0-33.42,23.51-57T965.29,567q33.79,0,58.11,22.72T1047.72,645.44ZM1029,645q0-25.9-18.73-43.84t-45-17.94q-25.85,0-43.76,18.76t-17.91,45.06q0,25.9,18.63,43.73t45.09,17.84q25.85,0,43.76-18.76A62.69,62.69,0,0,0,1029,645Z" transform="translate(20.4)" style="fill:#0f4588"/><path d="M1227.51,721.84l-24.48,0-56.59-76.94v76.94h-18.93V571.25l55.77,0.61a32.91,32.91,0,0,1,26.36,12.21,42.65,42.65,0,0,1,10.28,28.29,42.15,42.15,0,0,1-2.95,15.88,36.79,36.79,0,0,1-9.66,13.43,47.14,47.14,0,0,1-16.47,8.75l-19.93,0Zm-41.37-132.48a45.74,45.74,0,0,0-5.6-1.73,23.2,23.2,0,0,0-5.39-.71h-28.7V637.4H1180q9.77,0,15.17-6.82a25.92,25.92,0,0,0,5.39-16.59,30.52,30.52,0,0,0-3.66-14.86A21.66,21.66,0,0,0,1186.14,589.36Z" transform="translate(20.4)" style="fill:#0f4588"/><path d="M1426.54,715.16a125.53,125.53,0,0,1-21.47,6.92,100.6,100.6,0,0,1-22.09,2.44,88.32,88.32,0,0,1-29.92-5.09A79.83,79.83,0,0,1,1327,704q-24-24.43-24-57.6,0-21.57,9.47-37T1331,585.6q9.05-8.24,17.3-11.6a95.74,95.74,0,0,1,13.43-4.58,90.68,90.68,0,0,1,10.58-1.83,93.13,93.13,0,0,1,10.48-.61,101.66,101.66,0,0,1,15.88,1.32,134.61,134.61,0,0,1,16.69,3.77l11.2,5.09V597.1A70.2,70.2,0,0,0,1385,583.67a66.25,66.25,0,0,0-28.5,6.21,60.27,60.27,0,0,0-22.8,19,67,67,0,0,0-11.4,37.25,64.44,64.44,0,0,0,8.65,32.47,55.87,55.87,0,0,0,23.82,22.8,67.9,67.9,0,0,0,30.84,7.63,56.27,56.27,0,0,0,30.33-8.35l10.58-6.72v21.17Z" transform="translate(20.4)" style="fill:#0f4588"/><path d="M1636.2,721.88h-17.71V646.77H1535v75.11h-17.71V571.25H1535v59.64h83.46V571.25h17.71V721.88Z" transform="translate(20.4)" style="fill:#0f4588"/><path d="M1787,721.88h-17.71V571.25H1787V721.88Z" transform="translate(20.4)" style="fill:#0f4588"/><path d="M2065.49,645.44q0,33.42-23.51,57t-56.89,23.54q-33.79,0-58.11-22.72t-24.32-55.75q0-33.42,23.51-57T1983.05,567q33.79,0,58.11,22.72T2065.49,645.44Zm-18.73-.41q0-25.9-18.73-43.84t-45-17.94q-25.85,0-43.76,18.76t-17.91,45.06q0,25.9,18.63,43.73t45.09,17.84q25.85,0,43.76-18.76A62.69,62.69,0,0,0,2046.76,645Z" transform="translate(20.4)" style="fill:#0f4588"/><path d="M2227.11,721.88h-15.27V703.15a35.83,35.83,0,0,1-14.73,15.57,41.59,41.59,0,0,1-20.66,5.39,47.15,47.15,0,0,1-17.18-3.26,44.47,44.47,0,0,1-15.14-9.87A42.35,42.35,0,0,1,2134,695.31a54.58,54.58,0,0,1-3.37-19.24A62,62,0,0,1,2138.4,646,41.85,41.85,0,0,1,2155,630.28a46.61,46.61,0,0,1,22.3-5.7,40.66,40.66,0,0,1,22.09,6.31,51.46,51.46,0,0,1,5.93,5.09q2.86,2.85,6.55,7.12V562.5h15.27V721.88ZM2203.7,700.1q8.14-10.79,8.14-25.44a38.2,38.2,0,0,0-6.62-22.09q-6.62-9.67-19.24-12.11a55,55,0,0,0-5.5-.41,31.22,31.22,0,0,0-21.07,7.84q-9.06,7.84-10,15.06t-1,8.85c-0.07,1.09-.1,2-0.1,2.85q0,14.46,7.63,25t21.68,10.58a41.38,41.38,0,0,0,14.45-2.34A31.16,31.16,0,0,0,2203.7,700.1Z" transform="translate(20.4)" style="fill:#0f4588"/><path d="M2437.38,699.69a62.44,62.44,0,0,1-20.76,17.91,54.18,54.18,0,0,1-25.85,6.51,52,52,0,0,1-24.83-6.31,46.57,46.57,0,0,1-16.69-18.52,54.73,54.73,0,0,1-5.7-24.83A53.66,53.66,0,0,1,2354,642q10.48-14.35,21.58-16.08a119.72,119.72,0,0,1,15.16-1.73,51.77,51.77,0,0,1,24.33,5.9,35.87,35.87,0,0,1,16.59,18q5.29,12.11,5.29,28.4h-76.54a34.94,34.94,0,0,0,8.73,23.82,27.91,27.91,0,0,0,21.93,10,30.06,30.06,0,0,0,7.31-.81,29.53,29.53,0,0,0,14-5.8A61.92,61.92,0,0,0,2424,691.34Zm-16.9-35.42a31.63,31.63,0,0,0-10.79-18.62,30.24,30.24,0,0,0-20.15-7.23,25.31,25.31,0,0,0-18.22,7.63A36.35,36.35,0,0,0,2361,664.27h59.44Z" transform="translate(20.4)" style="fill:#0f4588"/><path d="M2642.36,627.23l-44.58,97.91h-4.28l-45.95-97.91,19.95,0,29.08,69.56,26.85-69.54h18.92Z" transform="translate(20.4)" style="fill:#0f4588"/><path d="M2792.58,702.74l-26.46,54.1-11.4-4.07,19.54-55.12ZM2780.37,638a11.22,11.22,0,0,1,6.51,4.58,13.76,13.76,0,0,1-.51,15.78,10.77,10.77,0,0,1-8,3.87q-6.52,0-9.87-3.66a13.6,13.6,0,0,1-3.36-9.57,19.3,19.3,0,0,1,.61-4.68,11.86,11.86,0,0,1,5.9-4.78A23.68,23.68,0,0,1,2780.37,638Z" transform="translate(20.4)" style="fill:#0f4588"/></g><g id="right-bracket"><g style="clip-path:url(#clip-path)"><g style="clip-path:url(#clip-path)"><g style="clip-path:url(#clip-path-3)"><rect x="2602.99" width="943.53" height="1201.2" style="fill:url(#Gradiente_sem_nome)"/></g><g style="clip-path:url(#clip-path-4)"><rect x="3043.22" y="845.22" width="145.12" height="417.97" style="fill:url(#Gradiente_sem_nome_2)"/></g><g style="clip-path:url(#clip-path-5)"><rect x="3048.64" y="694.18" width="122.59" height="392.69" style="fill:url(#Gradiente_sem_nome_3)"/></g><g style="clip-path:url(#clip-path-6)"><rect x="2651.14" y="692.73" width="481.11" height="666.96" style="fill:url(#Gradiente_sem_nome_4)"/></g><g style="clip-path:url(#clip-path-7)"><rect x="3022.5" y="665.05" width="53.93" height="56.91" style="fill:url(#Gradiente_sem_nome_5)"/></g></g></g></g><g id="left-bracket"><g style="clip-path:url(#clip-path-8)"><g style="clip-path:url(#clip-path-8)"><g style="clip-path:url(#clip-path-10)"><rect y="158.49" width="943.53" height="1201.2" style="fill:url(#Gradiente_sem_nome_6)"/></g><g style="clip-path:url(#clip-path-11)"><rect x="414.28" width="481.11" height="666.96" style="fill:url(#Gradiente_sem_nome_7)"/></g><g style="clip-path:url(#clip-path-12)"><rect x="470.1" y="637.73" width="53.92" height="56.91" style="fill:url(#Gradiente_sem_nome_8)"/></g><g style="clip-path:url(#clip-path-13)"><rect x="358.19" y="96.5" width="145.11" height="417.97" style="fill:url(#Gradiente_sem_nome_9)"/></g><g style="clip-path:url(#clip-path-14)"><rect x="375.3" y="272.81" width="122.59" height="392.7" style="fill:url(#Gradiente_sem_nome_10)"/></g></g></g></g></svg>