<svg id="logo" xmlns="http://www.w3.org/2000/svg" xmlns:xlink="http://www.w3.org/1999/xlink" viewBox="0 0 3546.52 1359.69"><defs><clipPath id="clip-path" transform="translate(20.4)"><rect x="2603" width="902.72" height="1359.69" style="fill:none"/></clipPath><clipPath id="clip-path-3" transform="translate(20.4)"><path d="M3466.57,693.72a169.27,169.27,0,0,0-49.74-120.1L2932.11,88.9a169.85,169.85,0,1,0-240.2,240.2l308.36,308.36c9,7.73,17.93,16,26.43,24.46,1,1,2.06,2.09,3.08,3.13l-27.68,27.68q-1.53-1.57-3.08-3.12-12.3-12.32-25.33-23.36L2664.23,356.79c-81.64-81.64-81.64-214,0-295.59a209,209,0,0,1,295.59,0l484.71,484.71c81.61,81.61,81.61,214,0,295.57l-359.69,359.7a428.52,428.52,0,0,0,76.52-131.9l255.49-255.48a169.31,169.31,0,0,0,49.74-120.1" style="fill:none"/></clipPath><linearGradient id="Gradiente_sem_nome" x1="-102.28" y1="1461.86" x2="-101.28" y2="1461.86" gradientTransform="matrix(902.72, 0, 0, -902.72, 94956.3, 1320250.8)" gradientUnits="userSpaceOnUse"><stop offset="0" stop-color="#4cc0ef"/><stop offset="1" stop-color="#446ab0"/></linearGradient><clipPath id="clip-path-4" transform="translate(20.4)"><path d="M3153.3,1077.34l8-8a428.52,428.52,0,0,1-76.52,131.9l-62,62a421.29,421.29,0,0,0,89-176.32,383.38,383.38,0,0,0,26.87-241.65,470.28,470.28,0,0,1,14.58,232.12" style="fill:none"/></clipPath><linearGradient id="Gradiente_sem_nome_2" x1="-102.28" y1="1461.86" x2="-101.28" y2="1461.86" gradientTransform="matrix(902.72, 0, 0, -902.72, 94956.46, 1320706.64)" xlink:href="#Gradiente_sem_nome"/><clipPath id="clip-path-5" transform="translate(20.4)"><path d="M3138.72,845.22a383.38,383.38,0,0,1-26.87,241.65c29.4-124.84,1.53-260.42-83.61-364.91L3056,694.18a458.82,458.82,0,0,1,82.69,151" style="fill:none"/></clipPath><linearGradient id="Gradiente_sem_nome_3" x1="-102.28" y1="1461.86" x2="-101.28" y2="1461.86" gradientTransform="matrix(902.72, 0, 0, -902.72, 94956.46, 1320542.96)" xlink:href="#Gradiente_sem_nome"/><clipPath id="clip-path-6" transform="translate(20.4)"><path d="M3105.83,1099.33q3.12-6.17,6-12.46a421.29,421.29,0,0,1-89,176.32l-21.93,21.93a420.74,420.74,0,0,1-114.17,69.24,209,209,0,0,1-194.78-351.47L3002.1,692.73Q3016,706.87,3028.24,722l-308.62,308.62a169.79,169.79,0,0,0,120.09,290,171,171,0,0,0,35.25-3.68,381.41,381.41,0,0,0,99.4-60.58l81.61-81.61a392.23,392.23,0,0,0,49.86-75.34" style="fill:none"/></clipPath><linearGradient id="Gradiente_sem_nome_4" x1="-102.28" y1="1461.86" x2="-101.28" y2="1461.86" gradientTransform="matrix(555.77, 0, 0, -555.77, 59496.57, 813478.54)" gradientUnits="userSpaceOnUse"><stop offset="0" stop-color="#0f4588"/><stop offset="1" stop-color="#1c1927"/></linearGradient><clipPath id="clip-path-7" transform="translate(20.4)"><path d="M3056,694.18L3028.24,722Q3016,706.9,3002.1,692.73L3029.78,665q13.84,14.1,26.25,29.13" style="fill:none"/></clipPath><linearGradient id="Gradiente_sem_nome_5" x1="-102.28" y1="1461.86" x2="-101.28" y2="1461.86" gradientTransform="matrix(902.72, 0, 0, -902.72, 94956.46, 1320345.94)" xlink:href="#Gradiente_sem_nome"/><clipPath id="clip-path-8" transform="translate(20.4)"><rect width="902.73" height="1359.69" style="fill:none"/></clipPath><clipPath id="clip-path-10" transform="translate(20.4)"><path d="M851.14,1214.65a169.7,169.7,0,0,0-37.32-184.06L505.45,722.22c-9-7.72-17.92-16-26.43-24.45l-3.08-3.13L503.62,667c1,1,2,2.09,3.09,3.12Q519,682.39,532,693.44L841.5,1002.9c81.63,81.64,81.63,214,0,295.59a209,209,0,0,1-295.59,0L61.21,813.76c-81.61-81.61-81.61-214,0-295.57l359.7-359.7a428.52,428.52,0,0,0-76.53,131.9L88.9,545.87a169.67,169.67,0,0,0,0,240.2l484.72,484.72a169.94,169.94,0,0,0,277.52-56.14" style="fill:none"/></clipPath><linearGradient id="Gradiente_sem_nome_6" x1="-102.28" y1="1461.86" x2="-101.28" y2="1461.86" gradientTransform="matrix(-902.72, 0, 0, 902.72, -91410.04, -1318894.77)" xlink:href="#Gradiente_sem_nome"/><clipPath id="clip-path-11" transform="translate(20.4)"><path d="M875,209a208.38,208.38,0,0,1-61.2,147.79L503.62,667q-13.86-14.14-26.13-29.23L786.1,329.11A169.79,169.79,0,0,0,666,39.15a171,171,0,0,0-35.26,3.68,381.25,381.25,0,0,0-99.39,60.58L449.75,185a391.71,391.71,0,0,0-49.85,75.34q-3.13,6.16-6,12.45a421.17,421.17,0,0,1,89-176.31l21.93-21.93A420.8,420.8,0,0,1,619,5.33,209,209,0,0,1,875,209" style="fill:none"/></clipPath><linearGradient id="Gradiente_sem_nome_7" x1="-102.28" y1="1461.86" x2="-101.28" y2="1461.86" gradientTransform="matrix(-555.77, 0, 0, 555.77, -55950.04, -812118.85)" xlink:href="#Gradiente_sem_nome_4"/><clipPath id="clip-path-12" transform="translate(20.4)"><path d="M503.62,667l-27.68,27.68q-13.83-14.1-26.24-29.13l27.79-27.78q12.27,15.06,26.13,29.23" style="fill:none"/></clipPath><linearGradient id="Gradiente_sem_nome_8" x1="-102.28" y1="1461.86" x2="-101.28" y2="1461.86" gradientTransform="matrix(-902.72, 0, 0, 902.72, -91409.93, -1318986.25)" xlink:href="#Gradiente_sem_nome"/><clipPath id="clip-path-13" transform="translate(20.4)"><path d="M420.91,158.49l62-62a421.17,421.17,0,0,0-89,176.31A383.31,383.31,0,0,0,367,514.47a470.51,470.51,0,0,1-14.58-232.12l-8,8a428.52,428.52,0,0,1,76.53-131.9" style="fill:none"/></clipPath><linearGradient id="Gradiente_sem_nome_9" x1="-102.28" y1="1461.86" x2="-101.28" y2="1461.86" gradientTransform="matrix(-902.72, 0, 0, 902.72, -91409.93, -1319346.95)" xlink:href="#Gradiente_sem_nome"/><clipPath id="clip-path-14" transform="translate(20.4)"><path d="M477.49,637.73L449.7,665.51a459,459,0,0,1-82.7-151,383.31,383.31,0,0,1,26.88-241.66c-29.4,124.85-1.53,260.43,83.61,364.92" style="fill:none"/></clipPath><linearGradient id="Gradiente_sem_nome_10" x1="-102.28" y1="1461.86" x2="-101.28" y2="1461.86" gradientTransform="matrix(-902.72, 0, 0, 902.72, -91409.93, -1319183.27)" xlink:href="#Gradiente_sem_nome"/></defs><title>logo-vazado</title><text transform="translate(679.95 721.88)" style="font-size:203.55299377441406px;fill:#0f4588;font-family:Futurist Fixed-width">TORCHIOdev;</text><g id="right-bracket"><g style="clip-path:url(#clip-path)"><g style="clip-path:url(#clip-path)"><g style="clip-path:url(#clip-path-3)"><rect x="2602.99" width="943.53" height="1201.2" style="fill:url(#Gradiente_sem_nome)"/></g><g style="clip-path:url(#clip-path-4)"><rect x="3043.22" y="845.22" width="145.12" height="417.97" style="fill:url(#Gradiente_sem_nome_2)"/></g><g style="clip-path:url(#clip-path-5)"><rect x="3048.64" y="694.18" width="122.59" height="392.69" style="fill:url(#Gradiente_sem_nome_3)"/></g><g style="clip-path:url(#clip-path-6)"><rect x="2651.14" y="692.73" width="481.11" height="666.96" style="fill:url(#Gradiente_sem_nome_4)"/></g><g style="clip-path:url(#clip-path-7)"><rect x="3022.5" y="665.05" width="53.93" height="56.91" style="fill:url(#Gradiente_sem_nome_5)"/></g></g></g></g><g id="left-bracket"><g style="clip-path:url(#clip-path-8)"><g style="clip-path:url(#clip-path-8)"><g style="clip-path:url(#clip-path-10)"><rect y="158.49" width="943.53" height="1201.2" style="fill:url(#Gradiente_sem_nome_6)"/></g><g style="clip-path:url(#clip-path-11)"><rect x="414.28" width="481.11" height="666.96" style="fill:url(#Gradiente_sem_nome_7)"/></g><g style="clip-path:url(#clip-path-12)"><rect x="470.1" y="637.73" width="53.92" height="56.91" style="fill:url(#Gradiente_sem_nome_8)"/></g><g style="clip-path:url(#clip-path-13)"><rect x="358.19" y="96.5" width="145.11" height="417.97" style="fill:url(#Gradiente_sem_nome_9)"/></g><g style="clip-path:url(#clip-path-14)"><rect x="375.3" y="272.81" width="122.59" height="392.7" style="fill:url(#Gradiente_sem_nome_10)"/></g></g></g></g></svg>